<svg width="22" height="22" viewBox="0 0 22 22" fill="none" xmlns="http://www.w3.org/2000/svg">
    <path
        d="M19.4595 6.39366C19.2458 6.20031 18.9863 6.07582 18.7104 6.0344C18.4345 5.99299 18.1534 6.03631 17.8991 6.15944L14.3753 7.85556L12.3073 3.83332C12.1782 3.58084 11.9889 3.37039 11.7591 3.22384C11.5294 3.07729 11.2675 3 11.0008 3C10.7341 3 10.4722 3.07729 10.2425 3.22384C10.0127 3.37039 9.82344 3.58084 9.69432 3.83332L7.62631 7.85556L4.1025 6.15944C3.84887 6.03421 3.56778 5.98872 3.29138 6.02817C3.01498 6.06761 2.75442 6.1904 2.53948 6.38249C2.32454 6.57458 2.16389 6.82823 2.07591 7.11443C1.98794 7.40064 1.97617 7.70785 2.04196 8.00094L3.93825 16.7562C4.01722 17.1114 4.20462 17.4274 4.47015 17.6531C4.73569 17.8788 5.06384 18.001 5.40153 18C5.53559 17.9989 5.66883 17.9771 5.79721 17.9354C9.20063 16.9229 12.7935 16.9229 16.197 17.9354C16.3906 17.9947 16.5934 18.011 16.7931 17.9834C16.9927 17.9557 17.1852 17.8847 17.3588 17.7746C17.5325 17.6644 17.6837 17.5174 17.8035 17.3424C17.9233 17.1674 18.0092 16.968 18.0559 16.7562L19.9597 8.00094C20.024 7.70925 20.0112 7.40386 19.9227 7.11966C19.8343 6.83546 19.6738 6.58389 19.4595 6.39366ZM16.3836 15.9808C12.8535 14.99 9.14812 14.99 5.61804 15.9808L3.92332 8.19479L7.14851 9.74553C7.48944 9.91098 7.87549 9.93138 8.2297 9.80265C8.58392 9.67391 8.88028 9.40551 9.05973 9.05092L11.0008 5.27907L12.9419 9.05092C13.1214 9.40551 13.4177 9.67391 13.7719 9.80265C14.1261 9.93138 14.5122 9.91098 14.8531 9.74553L18.0783 8.19479L16.3836 15.9808Z"
        fill="#848486"></path>
</svg>