<svg width="24" height="24" viewBox="0 0 24 24" fill="none" xmlns="http://www.w3.org/2000/svg">
<path d="M2.44702 6.42725H21.5527" stroke="#333333" stroke-width="1.5" stroke-linecap="round" stroke-linejoin="round"/>
<path d="M4.83521 6.42725H19.1645V20.7565C19.1645 21.1788 18.9967 21.5838 18.6982 21.8823C18.3996 22.1809 17.9946 22.3487 17.5723 22.3487H6.42735C6.00508 22.3487 5.60012 22.1809 5.30153 21.8823C5.00295 21.5838 4.83521 21.1788 4.83521 20.7565V6.42725Z" stroke="#333333" stroke-width="1.5" stroke-linecap="round" stroke-linejoin="round"/>
<path d="M8.01953 6.42731V5.63124C8.01953 4.57558 8.43889 3.56315 9.18535 2.81669C9.93181 2.07024 10.9442 1.65088 11.9999 1.65088C13.0555 1.65088 14.068 2.07024 14.8144 2.81669C15.5609 3.56315 15.9802 4.57558 15.9802 5.63124V6.42731" stroke="#333333" stroke-width="1.5" stroke-linecap="round" stroke-linejoin="round"/>
<path d="M9.61157 11.2061V17.5771" stroke="#333333" stroke-width="1.5" stroke-linecap="round" stroke-linejoin="round"/>
<path d="M14.3882 11.2061V17.5771" stroke="#333333" stroke-width="1.5" stroke-linecap="round" stroke-linejoin="round"/>
</svg>
