<svg width="20" height="20" viewBox="0 0 22 22" fill="none" xmlns="http://www.w3.org/2000/svg">
    <path
        d="M5.46733 4.12021V6.36065H3.15578V4.12021H5.46733ZM2.8 3C2.35817 3 2 3.35817 2 3.8V6.68086C2 7.12269 2.35817 7.48086 2.8 7.48086H5.82311C6.26494 7.48086 6.62311 7.12269 6.62311 6.68086V3.8C6.62311 3.35817 6.26493 3 5.82311 3H2.8ZM11.7537 4.12021V6.36064H9.44218V4.12021H11.7537ZM9.08641 3C8.64458 3 8.28641 3.35817 8.28641 3.8V6.68086C8.28641 7.12269 8.64458 7.48086 9.08641 7.48086H12.1095C12.5513 7.48086 12.9095 7.12269 12.9095 6.68086V3.8C12.9095 3.35817 12.5513 3 12.1095 3H9.08641ZM5.46733 10.2685V12.5089H3.15578V10.2685H5.46733ZM2.8 9.14829C2.35817 9.14829 2 9.50646 2 9.94829V12.8291C2 13.271 2.35817 13.6291 2.8 13.6291H5.82311C6.26494 13.6291 6.62311 13.271 6.62311 12.8291V9.94829C6.62311 9.50646 6.26493 9.14829 5.82311 9.14829H2.8Z"
        fill="#848486"></path>
    <path fill-rule="evenodd" clip-rule="evenodd"
        d="M15.8768 13.4575H12.5161V16.8182H9.15547V18.699H17.7576V10.0969H15.8768V13.4575ZM14.5768 12.1575H12.0161C11.5743 12.1575 11.2161 12.5157 11.2161 12.9575V15.5182H8.65547C8.21364 15.5182 7.85547 15.8763 7.85547 16.3182V19.199C7.85547 19.6409 8.21364 19.999 8.65547 19.999H18.2576C18.6994 19.999 19.0576 19.6409 19.0576 19.199V9.59688C19.0576 9.15505 18.6994 8.79688 18.2576 8.79688H15.3768C14.9349 8.79688 14.5768 9.15505 14.5768 9.59687V12.1575Z"
        fill="#848486"></path>
</svg>