<svg width="16" height="16" viewBox="0 0 16 16" fill="none" xmlns="http://www.w3.org/2000/svg">
<path d="M14.6127 7.20006C14.7887 7.41948 14.8861 7.70455 14.8861 8.00012C14.8861 8.2957 14.7887 8.58077 14.6127 8.80019C13.4982 10.1495 10.9613 12.7766 7.99994 12.7766C5.03855 12.7766 2.50174 10.1495 1.38723 8.80019C1.21121 8.58077 1.11377 8.2957 1.11377 8.00012C1.11377 7.70455 1.21121 7.41948 1.38723 7.20006C2.50174 5.8507 5.03855 3.22363 7.99994 3.22363C10.9613 3.22363 13.4982 5.8507 14.6127 7.20006Z" stroke="#4D4D4D" stroke-width="1.5" stroke-linecap="round" stroke-linejoin="round"/>
<path d="M7.99981 10.1232C9.17223 10.1232 10.1227 9.17272 10.1227 8.0003C10.1227 6.82788 9.17223 5.87744 7.99981 5.87744C6.82739 5.87744 5.87695 6.82788 5.87695 8.0003C5.87695 9.17272 6.82739 10.1232 7.99981 10.1232Z" stroke="#4D4D4D" stroke-width="1.5" stroke-linecap="round" stroke-linejoin="round"/>
</svg>
