<svg width="24" height="24" viewBox="0 0 24 24" fill="none" xmlns="http://www.w3.org/2000/svg">
<path d="M12 9.61133V17.572" stroke="white" stroke-width="1.5" stroke-linecap="round" stroke-linejoin="round"/>
<path d="M8.01978 13.5918H15.9805" stroke="white" stroke-width="1.5" stroke-linecap="round" stroke-linejoin="round"/>
<path d="M1.65112 20.3581L1.65112 3.64068C1.65112 3.21841 1.81887 2.81345 2.11745 2.51486C2.41604 2.21627 2.821 2.04853 3.24327 2.04853L9.11827 2.04853C9.48197 2.03793 9.83834 2.15223 10.128 2.37239C10.4177 2.59255 10.6232 2.9053 10.7104 3.25856L11.204 5.23282L20.7568 5.23282C21.1791 5.23282 21.5841 5.40055 21.8826 5.69914C22.1812 5.99773 22.349 6.40269 22.349 6.82496V20.3581C22.349 20.7805 22.1812 21.1854 21.8826 21.4839C21.5841 21.7826 21.1791 21.9503 20.7568 21.9503H3.24327C2.821 21.9503 2.41604 21.7826 2.11745 21.4839C1.81887 21.1854 1.65112 20.7805 1.65112 20.3581Z" stroke="white" stroke-width="1.5" stroke-linecap="round" stroke-linejoin="round"/>
</svg>
