<svg width="24" height="24" viewBox="0 0 24 24" fill="none" xmlns="http://www.w3.org/2000/svg">
<path d="M14.3883 1.65137L9.61192 1.65137C8.73261 1.65137 8.01978 2.36419 8.01978 3.24351V4.03958C8.01978 4.91889 8.73261 5.63172 9.61192 5.63172H14.3883C15.2677 5.63172 15.9805 4.91889 15.9805 4.03958V3.24351C15.9805 2.36419 15.2677 1.65137 14.3883 1.65137Z" stroke="white" stroke-width="1.5" stroke-linecap="round" stroke-linejoin="round"/>
<path d="M12 10.4082V18.3689" stroke="white" stroke-width="1.5" stroke-linecap="round" stroke-linejoin="round"/>
<path d="M15.9805 14.3887H8.01978" stroke="white" stroke-width="1.5" stroke-linecap="round" stroke-linejoin="round"/>
<path d="M16.3785 3.24316H18.7667C19.189 3.24316 19.594 3.41091 19.8925 3.70949C20.191 4.00808 20.3589 4.41304 20.3589 4.83531V20.7567C20.3589 21.179 20.191 21.584 19.8925 21.8825C19.594 22.1811 19.189 22.3489 18.7667 22.3489H5.2335C4.81123 22.3489 4.40627 22.1811 4.10768 21.8825C3.80911 21.584 3.64136 21.179 3.64136 20.7567L3.64136 4.83531C3.64136 4.41304 3.80911 4.00808 4.10768 3.70949C4.40627 3.41091 4.81123 3.24316 5.2335 3.24316H7.62171" stroke="white" stroke-width="1.5" stroke-linecap="round" stroke-linejoin="round"/>
</svg>
