<svg width="24" height="24" fill="none" xmlns="http://www.w3.org/2000/svg"><path d="M8.126 3.965c-.512.085-1.2.392-1.644.734-.724.557-1.204 1.284-1.452 2.2-.125.461-.125 1.381 0 1.842.201.743.539 1.336 1.056 1.852a3.893 3.893 0 0 0 5.508 0c.51-.51.857-1.117 1.055-1.848.126-.467.126-1.383 0-1.85-.416-1.537-1.648-2.693-3.129-2.932-.306-.05-1.09-.049-1.394.002M9.36 5.763c.549.127 1.112.585 1.375 1.12.567 1.153-.034 2.579-1.249 2.96a2.462 2.462 0 0 1-1.292 0c-1.215-.381-1.816-1.807-1.249-2.96.259-.525.828-.994 1.358-1.118.217-.051.839-.052 1.057-.002m6.506.596c-.106.02-.313.072-.46.118-.811.251-1.626 1.009-1.937 1.803-.182.465-.206.6-.207 1.18-.001.478.012.604.092.86.186.595.415.963.872 1.404.322.311.615.505.974.646.465.184.598.207 1.18.207s.715-.023 1.18-.207c.359-.141.652-.335.974-.646.457-.441.686-.809.872-1.404.08-.256.093-.382.092-.86-.001-.58-.025-.715-.207-1.18-.327-.834-1.17-1.59-2.051-1.839-.338-.096-1.061-.139-1.374-.082m1.074 1.896c.274.125.521.375.653.659.149.322.149.77 0 1.092a1.409 1.409 0 0 1-.667.668c-.322.151-.77.151-1.092 0a1.409 1.409 0 0 1-.667-.668 1.39 1.39 0 0 1 0-1.092 1.334 1.334 0 0 1 1.773-.659m-11.16 4.75c-1.993.249-3.615 1.865-3.882 3.868-.082.621-.08 2.369.004 2.615a.905.905 0 0 0 .834.601c.392.003.769-.259.861-.598.023-.083.048-.673.057-1.311.018-1.293.038-1.42.295-1.94.221-.446.752-.969 1.211-1.192.594-.289.581-.288 3.92-.288 3.346 0 3.33-.001 3.92.29.462.227.992.749 1.211 1.19.257.52.277.647.295 1.94.009.638.034 1.228.057 1.311.092.339.469.601.861.598a.905.905 0 0 0 .834-.601c.084-.246.086-1.994.004-2.615a4.512 4.512 0 0 0-3.922-3.869c-.433-.053-6.134-.052-6.56.001m10.948.078c-.072.022-.219.125-.326.229-.266.257-.339.539-.237.908.059.212.363.516.575.575.095.026.521.045 1.043.045.485 0 .988.02 1.118.044a1.819 1.819 0 0 1 1.358 1.219c.045.146.06.402.061.985 0 .433.019.878.043.988.094.438.502.752.932.716.266-.022.551-.182.686-.386.157-.237.191-.533.167-1.446-.025-.931-.104-1.341-.361-1.882-.443-.931-1.313-1.646-2.343-1.927-.268-.073-.44-.085-1.444-.095-.684-.008-1.193.003-1.272.027" fill-rule="evenodd" fill="currentColor"/></svg>