<svg width="1024" height="1024" viewBox="0 0 1024 1024" fill="none" xmlns="http://www.w3.org/2000/svg">
<path d="M100.1 411.3C85.1999 406.9 71.5999 399.5 61.7999 387C51.3999 373.8 46.5999 354.9 48.5999 338.3C50.6999 321.2 59.8999 304.8 73.4999 294.3C85.9999 284.7 104.9 278.5 120.7 280.8C136.2 283 148.9 288.2 160.3 299.3C173.5 312.2 179.8 328.6 179.8 347C179.8 365.1 172.9 381.6 160.2 394.4C152 402.6 141.2 408.3 129.9 411.1C119.5 413.3 110.5 412.4 100.1 411.3Z" fill="#FCC822"/>
<path d="M892.9 411.2C879.3 407.6 869.3 401.7 859.6 391.4C851.8 383.1 846.6 373.2 843.9 362.2C839.9 345.7 841.9 328.3 850.6 313.6C858.6 300.1 873.9 286.8 889.4 283.1C909.3 278.3 927.8 280.3 945.5 291.2C959.5 299.8 970.4 314.6 974.1 330.6C978 347.6 975.8 365.5 966.4 380.3C955.7 397.2 940.4 407.2 921.4 412.1C911.4 414 902.9 413.2 892.9 411.2Z" fill="#FCC822"/>
<path d="M480.5 247.4C463 237.4 451.6 223.8 446.5 204.3C442.2 187.9 445.1 169.6 453.8 155.1C463.2 139.4 477.8 128.1 495.7 123.8C513.5 119.5 533.2 122.8 548.8 132.5C562.6 141.2 573.9 156.7 577.6 172.6C581.7 190.2 578.9 208.5 569.2 223.7C562.7 233.8 553.5 242.3 542.9 248.1L537.1 250.3C518.1 256.9 498.4 256.1 480.5 247.4Z" fill="#FCC822"/>
<path d="M311.6 533.5L299.7 448.3L298 433.8C297.7 431.9 297.6 429.2 296.8 427.5C296.1 426.1 294.6 424.7 293.6 423.5L287.7 416.6C276.3 402.9 265.5 388.5 253.1 375.8L283.8 253C286.2 253.3 375.2 327.7 385.9 336.1L381 413.3L416.1 446.8L345.3 545.7L312.3 533.8C311.8 533.6 312 533.7 311.6 533.5Z" fill="#FCC822"/>
<path d="M607.4 446.8L639.8 414.5L636.9 355.8C636.6 349.7 635.4 342.4 636.2 336.4L655.5 320.9L715.9 271.7L729.5 260.7C732.5 258.2 735.2 255.6 738.6 253.6L771.5 376.2C767.9 381.1 763 385.1 758.8 389.4L727.7 422.8C725.6 425.2 717.5 519.7 716.1 529.9L715.7 532.9C703.2 538.2 691.2 541.1 677.8 543.5C673 539.3 669 532.3 665.3 527L645.7 498.8L627.5 474L607.4 446.8Z" fill="#FCC822"/>
<path d="M215.1 776.4L215.2 776.9C216.1 784.3 215.5 792.3 215.5 799.7L215.4 841.6L809.5 841.7V796.9V785.4C809.5 783.7 809.2 781.6 809.8 780C810.4 783.6 810 787.8 810 791.5V812.7L809.6 902.4L215.5 902.2L215.1 776.4Z" fill="#FFDC64"/>
<path d="M214.8 773.6L270.3 773.1H368.8L624.9 773.3H759.3L791.7 773.4C797.5 773.4 803.7 772.9 809.5 773.6L810.3 774.5L809.8 780C809.2 781.6 809.5 783.7 809.5 785.4V796.9V841.7L215.4 841.6L215.5 799.7C215.5 792.3 216.1 784.3 215.2 776.9L215.1 776.4L214.8 773.6Z" fill="#FCC822"/>
<path d="M480.5 247.4C498.4 256.1 518.1 256.9 536.9 250.4L542.7 248.2C544.6 255.9 545.6 263.8 546.9 271.6L551.5 297C557 325.1 563.8 352.6 573.6 379.6C578 391.8 582.7 403.8 588.7 415.4C594.3 426.3 601 436.4 607.4 446.8L627.4 474L645.7 498.8L665.3 527C669 532.2 673 539.3 677.8 543.5C691.1 541.1 727.3 528.3 731.5 526.4L757.2 513.7L779.3 501.8L800.4 488.2C817.1 477.4 833.4 466.1 848.8 453.4L874.4 430.2L887.5 417.1C889.2 415.4 891.8 413.2 892.8 411.1C902.8 413.1 911.3 413.9 921.3 412C918.9 423 915.2 433.7 911.9 444.4L895.9 496.7L876.6 561.3L839 682.3L816.7 755.2L812.7 768.5C812.1 770.5 811.7 772.8 810.4 774.4L809.6 773.5C803.8 772.8 797.7 773.3 791.8 773.3L759.4 773.2H625L368.8 773H270.3L214.8 773.5L100.1 411.3C110.5 412.4 119.5 413.3 129.9 411.1L144.6 425.5C187.3 464.4 233.8 498.5 286.5 522.5C286.5 522.5 308.4 532.3 312.3 533.8C316.2 535.3 345.3 545.7 345.3 545.7L416.1 446.8C430.5 428.2 440.5 406 448.7 384.1C459 356.7 466.7 328.7 472.1 300L480.5 247.4Z" fill="#FFDC64"/>
</svg>
