<svg width="1024" height="1024" viewBox="0 0 1024 1024" fill="none" xmlns="http://www.w3.org/2000/svg">
<g clip-path="url(#clip0_1266_7232)">
<path d="M0 0H1024V1024H0V0Z" fill="white"/>
<path d="M100.068 411.284C85.1674 406.91 71.5562 399.436 61.7501 387.028C51.3351 373.849 46.5379 354.918 48.5269 338.363C50.582 321.258 59.7978 304.862 73.4601 294.314C85.9375 284.681 104.868 278.54 120.646 280.794C136.112 283.004 148.881 288.183 160.231 299.25C173.445 312.134 179.722 328.597 179.739 346.932C179.757 364.989 172.874 381.551 160.146 394.346C151.949 402.586 141.138 408.283 129.887 411.085C119.51 413.254 110.452 412.361 100.068 411.284Z" fill="#FCC822"/>
<path d="M892.906 411.238C879.294 407.591 869.286 401.709 859.631 391.43C851.865 383.162 846.629 373.271 843.976 362.25C840.012 345.783 841.948 328.335 850.666 313.642C858.652 300.183 873.961 286.878 889.443 283.145C909.356 278.343 927.892 280.299 945.548 291.216C959.525 299.857 970.414 314.633 974.126 330.648C978.07 347.666 975.791 365.52 966.428 380.319C955.751 397.197 940.465 407.232 921.421 412.098C911.4 414.041 902.858 413.232 892.906 411.238Z" fill="#FCC822"/>
<path d="M480.49 247.439C462.961 237.441 451.604 223.862 446.45 204.359C442.123 187.991 445.042 169.624 453.71 155.155C463.109 139.466 477.726 128.2 495.579 123.878C513.393 119.566 533.098 122.882 548.633 132.613C562.449 141.267 573.779 156.842 577.456 172.75C581.519 190.328 578.805 208.662 569.031 223.867C562.512 234.008 553.285 242.428 542.742 248.225L536.916 250.471C518.108 256.938 498.426 256.144 480.49 247.439Z" fill="#FCC822"/>
<path d="M311.553 533.486L299.693 448.252L297.954 433.799C297.7 431.892 297.603 429.226 296.775 427.486C296.111 426.092 294.561 424.671 293.549 423.508L287.687 416.603C276.323 402.933 265.527 388.496 253.084 375.784L283.808 252.965C286.221 253.279 375.239 327.654 385.922 336.034L380.999 413.275L416.108 446.822L345.265 545.725L312.298 533.809C311.756 533.643 311.973 533.743 311.553 533.486Z" fill="#FCC822"/>
<path d="M607.441 446.789L639.872 414.474L636.925 355.75C636.643 349.652 635.405 342.35 636.198 336.37L655.54 320.821L715.915 271.608L729.513 260.574C732.486 258.106 735.257 255.432 738.612 253.477L771.499 376.089C767.918 380.965 763.023 384.973 758.839 389.337L727.774 422.713C725.689 425.148 717.609 519.616 716.203 529.821L715.791 532.813C703.276 538.147 691.245 541.046 677.921 543.46C673.11 539.266 669.081 532.247 665.409 527L645.796 498.84L627.456 474L607.441 446.789Z" fill="#FCC822"/>
<path d="M215.101 776.363L215.17 776.902C216.027 784.291 215.471 792.259 215.47 799.707L215.412 841.591L809.468 841.645L809.484 796.877L809.471 785.345C809.47 783.636 809.193 781.595 809.779 779.984C810.348 783.588 809.971 787.785 809.974 791.452L809.978 812.634L809.55 902.341L215.479 902.154L215.101 776.363Z" fill="#FFDC64"/>
<path d="M214.76 773.583L270.309 773.04L368.774 773.038L624.909 773.271L759.34 773.291L791.737 773.359C797.558 773.357 803.748 772.903 809.5 773.592L810.267 774.449L809.779 779.984C809.193 781.595 809.47 783.636 809.471 785.345L809.484 796.877L809.468 841.645L215.412 841.591L215.47 799.707C215.471 792.259 216.027 784.291 215.17 776.902L215.101 776.363L214.76 773.583Z" fill="#FCC822"/>
<path d="M480.49 247.439C498.426 256.144 518.108 256.938 536.916 250.471L542.742 248.225C544.68 255.892 545.677 263.86 546.935 271.663L551.561 297.035C557.035 325.136 563.9 352.685 573.638 379.608C578.052 391.813 582.758 403.848 588.697 415.411C594.297 426.315 600.978 436.402 607.441 446.789L627.456 474L645.796 498.84L665.409 527C669.081 532.247 673.11 539.266 677.921 543.46C691.245 541.046 703.276 538.147 715.791 532.813L716.203 529.821C716.296 530.842 716.384 531.484 716.75 532.458C717.448 532.327 718.076 532.204 718.75 531.973C723.102 530.485 727.466 528.275 731.666 526.374L757.375 513.717L779.497 501.849L800.569 488.276C817.276 477.428 833.599 466.207 848.988 453.515L874.569 430.355L887.655 417.261C889.31 415.539 891.915 413.387 892.906 411.238C902.858 413.232 911.4 414.041 921.421 412.098C918.98 423.055 915.293 433.757 912.003 444.484L895.999 496.75L876.664 561.346L838.953 682.267L816.604 755.213L812.592 768.5C811.989 770.496 811.548 772.781 810.267 774.449L809.5 773.592C803.748 772.903 797.558 773.357 791.737 773.359L759.34 773.291L624.909 773.271L368.774 773.038L270.309 773.04L214.76 773.583L100.068 411.284C110.452 412.361 119.51 413.254 129.887 411.085L144.586 425.517C187.255 464.396 233.798 498.544 286.5 522.525L303.166 530.09C305.773 531.24 308.797 532.874 311.553 533.486C311.973 533.743 311.756 533.643 312.298 533.809L345.265 545.725L416.108 446.822C430.467 428.208 440.522 406.054 448.737 384.134C458.992 356.772 466.714 328.761 472.122 300.024L480.49 247.439Z" fill="#FFDC64"/>
<path d="M508.259 525.702C512.209 525.398 516.219 525.708 520.062 526.68L521 526.926C526.45 528.325 531.496 530.833 536.011 534.194C539.933 537.114 543.203 540.893 546.262 544.679C557.78 558.94 563.419 575.697 565.843 593.668C569.358 619.724 564.399 649.347 548.009 670.574C540.213 680.671 529.036 688.616 516.19 690.342L515.25 690.47C504.033 691.505 493.886 687.709 485.391 680.49C467.209 665.036 459.454 640.865 457.636 617.797C455.513 590.865 462.095 561.124 480.088 540.363C487.214 532.141 497.384 526.46 508.259 525.702Z" fill="white"/>
</g>
<defs>
<clipPath id="clip0_1266_7232">
<rect width="1024" height="1024" fill="white"/>
</clipPath>
</defs>
</svg>
