<?xml version="1.0" encoding="utf-8"?>
<!-- Generator: Adobe Illustrator 28.0.0, SVG Export Plug-In . SVG Version: 6.00 Build 0)  -->
<svg version="1.1" id="Layer_1" xmlns="http://www.w3.org/2000/svg" x="0px" y="0px"
	 viewBox="0 0 1024 1024" style="enable-background:new 0 0 1024 1024;" xml:space="preserve">
<style type="text/css">
	.st0{fill:#FCC822;}
	.st1{fill:#FFDC64;}
</style>
<path class="st0" d="M100.1,411.3c-14.9-4.4-28.5-11.8-38.3-24.3c-10.4-13.2-15.2-32.1-13.2-48.7c2.1-17.1,11.3-33.5,24.9-44
	c12.5-9.6,31.4-15.8,47.2-13.5c15.5,2.2,28.2,7.4,39.6,18.5c13.2,12.9,19.5,29.3,19.5,47.7c0,18.1-6.9,34.6-19.6,47.4
	c-8.2,8.2-19,13.9-30.3,16.7C119.5,413.3,110.5,412.4,100.1,411.3z"/>
<path class="st0" d="M892.9,411.2c-13.6-3.6-23.6-9.5-33.3-19.8c-7.8-8.3-13-18.2-15.7-29.2c-4-16.5-2-33.9,6.7-48.6
	c8-13.5,23.3-26.8,38.8-30.5c19.9-4.8,38.4-2.8,56.1,8.1c14,8.6,24.9,23.4,28.6,39.4c3.9,17,1.7,34.9-7.7,49.7
	c-10.7,16.9-26,26.9-45,31.8C911.4,414,902.9,413.2,892.9,411.2z"/>
<path class="st0" d="M480.5,247.4c-17.5-10-28.9-23.6-34-43.1c-4.3-16.4-1.4-34.7,7.3-49.2c9.4-15.7,24-27,41.9-31.3
	c17.8-4.3,37.5-1,53.1,8.7c13.8,8.7,25.1,24.2,28.8,40.1c4.1,17.6,1.3,35.9-8.4,51.1c-6.5,10.1-15.7,18.6-26.3,24.4l-5.8,2.2
	C518.1,256.9,498.4,256.1,480.5,247.4z"/>
<path class="st0" d="M311.6,533.5l-11.9-85.2l-1.7-14.5c-0.3-1.9-0.4-4.6-1.2-6.3c-0.7-1.4-2.2-2.8-3.2-4l-5.9-6.9
	c-11.4-13.7-22.2-28.1-34.6-40.8L283.8,253c2.4,0.3,91.4,74.7,102.1,83.1l-4.9,77.2l35.1,33.5l-70.8,98.9l-33-11.9
	C311.8,533.6,312,533.7,311.6,533.5z"/>
<path class="st0" d="M607.4,446.8l32.4-32.3l-2.9-58.7c-0.3-6.1-1.5-13.4-0.7-19.4l19.3-15.5l60.4-49.2l13.6-11
	c3-2.5,5.7-5.1,9.1-7.1l32.9,122.6c-3.6,4.9-8.5,8.9-12.7,13.2l-31.1,33.4c-2.1,2.4-10.2,96.9-11.6,107.1l-0.4,3
	c-12.5,5.3-24.5,8.2-37.9,10.6c-4.8-4.2-8.8-11.2-12.5-16.5l-19.6-28.2L627.5,474L607.4,446.8z"/>
<path class="st1" d="M215.1,776.4l0.1,0.5c0.9,7.4,0.3,15.4,0.3,22.8l-0.1,41.9l594.1,0.1l0-44.8l0-11.5c0-1.7-0.3-3.8,0.3-5.4
	c0.6,3.6,0.2,7.8,0.2,11.5l0,21.2l-0.4,89.7l-594.1-0.2L215.1,776.4z"/>
<path class="st0" d="M214.8,773.6l55.5-0.5l98.5,0l256.1,0.2l134.4,0l32.4,0.1c5.8,0,12-0.5,17.8,0.2l0.8,0.9l-0.5,5.5
	c-0.6,1.6-0.3,3.7-0.3,5.4l0,11.5l0,44.8l-594.1-0.1l0.1-41.9c0-7.4,0.6-15.4-0.3-22.8l-0.1-0.5L214.8,773.6z"/>
<path class="st1" d="M480.5,247.4c17.9,8.7,37.6,9.5,56.4,3l5.8-2.2c1.9,7.7,2.9,15.6,4.2,23.4l4.6,25.4
	c5.5,28.1,12.3,55.6,22.1,82.6c4.4,12.2,9.1,24.2,15.1,35.8c5.6,10.9,12.3,21,18.7,31.4l20,27.2l18.3,24.8l19.6,28.2
	c3.7,5.2,7.7,12.3,12.5,16.5c13.3-2.4,49.5-15.2,53.7-17.1l25.7-12.7l22.1-11.9l21.1-13.6c16.7-10.8,33-22.1,48.4-34.8l25.6-23.2
	l13.1-13.1c1.7-1.7,4.3-3.9,5.3-6c10,2,18.5,2.8,28.5,0.9c-2.4,11-6.1,21.7-9.4,32.4l-16,52.3l-19.3,64.6L839,682.3l-22.3,72.9
	l-4,13.3c-0.6,2-1,4.3-2.3,5.9l-0.8-0.9c-5.8-0.7-11.9-0.2-17.8-0.2l-32.4-0.1l-134.4,0L368.8,773l-98.5,0l-55.5,0.5L100.1,411.3
	c10.4,1.1,19.4,2,29.8-0.2l14.7,14.4c42.7,38.9,89.2,73,141.9,97c0,0,21.9,9.8,25.8,11.3s33,11.9,33,11.9l70.8-98.9
	c14.4-18.6,24.4-40.8,32.6-62.7c10.3-27.4,18-55.4,23.4-84.1L480.5,247.4z"/>
</svg>
