<svg width="28" height="28" viewBox="0 0 28 28" fill="none" xmlns="http://www.w3.org/2000/svg">
<path d="M23.774 22.6068C23.373 23.0077 22.7231 23.0077 22.3221 22.6068L17.2531 17.5377C16.8327 17.1174 16.1677 17.0915 15.6452 17.375C15.3568 17.5316 15.0503 17.668 14.7258 17.7845C14.0517 18.0266 13.3345 18.1475 12.574 18.1475C10.6901 18.1475 9.09577 17.4952 7.79118 16.1906C6.4859 14.8853 5.83325 13.2907 5.83325 11.4068C5.83325 9.52285 6.4859 7.92819 7.79118 6.6229C9.09577 5.31831 10.6901 4.66602 12.574 4.66602C14.458 4.66602 16.0526 5.31831 17.3578 6.6229C18.6624 7.92819 19.3148 9.52285 19.3148 11.4068C19.3148 12.1672 19.1938 12.8845 18.9517 13.5586C18.8353 13.883 18.6988 14.1895 18.5422 14.4779C18.2587 15.0005 18.2846 15.6655 18.705 16.0858L23.774 21.1549C24.1749 21.5559 24.1749 22.2058 23.774 22.6068ZM12.574 16.0734C13.8703 16.0734 14.9723 15.6198 15.8801 14.7129C16.7871 13.8051 17.2407 12.7031 17.2407 11.4068C17.2407 10.1105 16.7871 9.00847 15.8801 8.10068C14.9723 7.19362 13.8703 6.74009 12.574 6.74009C11.2777 6.74009 10.1757 7.19362 9.26792 8.10068C8.36086 9.00847 7.90733 10.1105 7.90733 11.4068C7.90733 12.7031 8.36086 13.8051 9.26792 14.7129C10.1757 15.6198 11.2777 16.0734 12.574 16.0734Z" fill="#808080"/>
</svg>
