<svg width="28" height="28" viewBox="0 0 28 28" fill="none" xmlns="http://www.w3.org/2000/svg">
<path d="M12.0001 23H16.0001C16.0001 23.5304 15.7894 24.0391 15.4143 24.4142C15.0393 24.7893 14.5305 25 14.0001 25C13.4697 25 12.961 24.7893 12.5859 24.4142C12.2108 24.0391 12.0001 23.5304 12.0001 23ZM5.07612 20.383C5.00041 20.2002 4.98062 19.9991 5.01925 19.8051C5.05787 19.6111 5.15318 19.4328 5.29312 19.293L7.00012 17.586V12C7.00333 10.3185 7.61121 8.69424 8.71276 7.42379C9.8143 6.15334 11.336 5.32145 13.0001 5.08V4C13.0001 3.73478 13.1055 3.48043 13.293 3.29289C13.4805 3.10536 13.7349 3 14.0001 3C14.2653 3 14.5197 3.10536 14.7072 3.29289C14.8948 3.48043 15.0001 3.73478 15.0001 4V5.08C16.6642 5.32145 18.1859 6.15334 19.2875 7.42379C20.389 8.69424 20.9969 10.3185 21.0001 12V17.586L22.7071 19.293C22.8469 19.4329 22.9421 19.611 22.9807 19.805C23.0193 19.9989 22.9995 20.2 22.9238 20.3827C22.8481 20.5654 22.72 20.7215 22.5556 20.8314C22.3912 20.9413 22.1979 21 22.0001 21H6.00012C5.80235 21 5.60901 20.9415 5.44454 20.8316C5.28007 20.7218 5.15186 20.5657 5.07612 20.383ZM8.41412 19H19.5861L19.2931 18.707C19.1056 18.5195 19.0002 18.2652 19.0001 18V12C19.0001 10.6739 18.4733 9.40215 17.5357 8.46447C16.598 7.52678 15.3262 7 14.0001 7C12.674 7 11.4023 7.52678 10.4646 8.46447C9.5269 9.40215 9.00012 10.6739 9.00012 12V18C9.00006 18.2652 8.89467 18.5195 8.70712 18.707L8.41412 19Z" fill="#808080"/>
</svg>
