<svg width="20" height="20" viewBox="0 0 20 20" fill="none" xmlns="http://www.w3.org/2000/svg">
<path fill-rule="evenodd" clip-rule="evenodd" d="M1.16895 9.99841C1.16895 5.1215 5.12247 1.16797 9.99939 1.16797C14.8763 1.16797 18.8298 5.1215 18.8298 9.99841C18.8298 14.8753 14.8763 18.8289 9.99939 18.8289C5.12247 18.8289 1.16895 14.8753 1.16895 9.99841ZM9.99939 2.43463C5.82203 2.43463 2.43562 5.82106 2.43562 9.99841C2.43562 14.1757 5.82203 17.5622 9.99939 17.5622C14.1767 17.5622 17.5631 14.1757 17.5631 9.99841C17.5631 5.82106 14.1767 2.43463 9.99939 2.43463ZM10.9994 13.9988C10.9994 14.551 10.5517 14.9988 9.99942 14.9988C9.44713 14.9988 8.99942 14.551 8.99942 13.9988C8.99942 13.4465 9.44713 12.9988 9.99942 12.9988C10.5517 12.9988 10.9994 13.4465 10.9994 13.9988ZM8.06622 8.33211C8.06622 7.42826 8.84633 6.56545 9.99955 6.56545C11.1528 6.56545 11.9329 7.42826 11.9329 8.33211C11.9329 8.98702 11.5729 9.32161 10.9521 9.6987C10.8829 9.74079 10.803 9.78719 10.7175 9.83683C10.4732 9.97869 10.1834 10.147 9.9655 10.3168C9.64237 10.5685 9.26622 10.9748 9.26622 11.5988C9.26623 12.0038 9.59455 12.3321 9.99957 12.3321C10.4027 12.3321 10.7299 12.0068 10.7329 11.6043L10.7336 11.6032C10.7452 11.5849 10.7794 11.5419 10.867 11.4737C11.0023 11.3683 11.153 11.281 11.3537 11.1646C11.4584 11.1039 11.5768 11.0353 11.7136 10.9522C12.4262 10.5193 13.3995 9.80387 13.3995 8.33211C13.3995 6.5693 11.913 5.09878 9.99955 5.09878C8.08613 5.09878 6.59955 6.5693 6.59955 8.33211C6.59955 8.73713 6.92789 9.06545 7.33289 9.06545C7.7379 9.06545 8.06622 8.73713 8.06622 8.33211Z" fill="#E6E6E6"/>
</svg>
