<svg width="22" height="22" viewBox="0 0 22 22" fill="none" xmlns="http://www.w3.org/2000/svg">
    <path
        d="M17.3333 7.49334C17.3339 7.40561 17.317 7.31863 17.2839 7.23741C17.2507 7.15618 17.2018 7.0823 17.14 7.02001L14.3133 4.19334C14.2511 4.13156 14.1772 4.08267 14.0959 4.0495C14.0147 4.01632 13.9277 3.9995 13.84 4.00001C13.7523 3.9995 13.6653 4.01632 13.5841 4.0495C13.5028 4.08267 13.429 4.13156 13.3667 4.19334L11.48 6.08001L4.19334 13.3667C4.13156 13.429 4.08267 13.5028 4.0495 13.5841C4.01632 13.6653 3.9995 13.7523 4.00001 13.84V16.6667C4.00001 16.8435 4.07025 17.0131 4.19527 17.1381C4.3203 17.2631 4.48987 17.3333 4.66668 17.3333H7.49334C7.58663 17.3384 7.67994 17.3238 7.76722 17.2905C7.85451 17.2572 7.93382 17.2059 8.00001 17.14L15.2467 9.85334L17.14 8.00001C17.2009 7.9354 17.2504 7.86103 17.2867 7.78001C17.2931 7.72687 17.2931 7.67315 17.2867 7.62001C17.2898 7.58898 17.2898 7.55771 17.2867 7.52668L17.3333 7.49334ZM7.22001 16H5.33334V14.1133L11.9533 7.49334L13.84 9.38001L7.22001 16ZM14.78 8.44001L12.8933 6.55334L13.84 5.61334L15.72 7.49334L14.78 8.44001Z"
        fill="currentColor" />
</svg>