<svg width="12" height="12" viewBox="0 0 12 12" fill="none" xmlns="http://www.w3.org/2000/svg">
<g clip-path="url(#clip0_1585_2795)">
<path d="M0.825439 10.1795V1.82083C0.825439 1.60969 0.909311 1.40721 1.0586 1.25792C1.2079 1.10862 1.41038 1.02475 1.62151 1.02475H4.55901C4.74086 1.01945 4.91905 1.0766 5.06389 1.18668C5.20873 1.29676 5.3115 1.45314 5.35509 1.62977L5.60187 2.6169H10.3783C10.5894 2.6169 10.7919 2.70076 10.9412 2.85006C11.0905 2.99935 11.1744 3.20184 11.1744 3.41297V10.1795C11.1744 10.3907 11.0905 10.5932 10.9412 10.7424C10.7919 10.8918 10.5894 10.9756 10.3783 10.9756H1.62151C1.41038 10.9756 1.2079 10.8918 1.0586 10.7424C0.909311 10.5932 0.825439 10.3907 0.825439 10.1795Z" stroke="#66FFE0" stroke-width="1.71" stroke-linecap="round" stroke-linejoin="round"/>
</g>
<defs>
<clipPath id="clip0_1585_2795">
<rect width="12" height="12" fill="white"/>
</clipPath>
</defs>
</svg>
