<svg width="18" height="20" viewBox="0 0 24 24" fill="none" xmlns="http://www.w3.org/2000/svg">
    <path
        d="M15.48 2.763c-.058.034-.601.557-1.207 1.162-.856.854-1.112 1.093-1.145 1.07-1.148-.808-2.026-1.232-2.943-1.421-1.339-.275-2.613-.097-3.931.551-.855.42-1.611.979-2.431 1.798-.937.937-1.716 1.962-2.557 3.363-.387.647-.399.717-.179 1.124.628 1.16 1.612 2.496 2.563 3.479l.336.346-1.12 1.125c-1.242 1.247-1.236 1.239-1.161 1.522.103.384.518.552.847.343.2-.128 13.651-13.631 13.715-13.768a.51.51 0 0 0-.111-.581c-.173-.183-.474-.233-.676-.113M9.765 4.64c.79.13 1.571.47 2.364 1.027l.234.165-.643.643-.643.643-.131-.09c-.356-.244-.903-.454-1.383-.531a3.571 3.571 0 0 0-3.948 2.398c-.126.376-.165.643-.164 1.11.001.74.175 1.343.565 1.953l.098.154-.665.664-.665.664-.271-.277c-.822-.84-1.748-2.065-2.278-3.012l-.086-.153.191-.312c1.362-2.228 2.845-3.762 4.395-4.542 1.008-.508 2.006-.674 3.03-.504m4.649 2.196a.668.668 0 0 0-.284.365c-.048.176.008.338.205.598l.376.495c.246.324.877 1.267 1.028 1.535l.106.192-.187.307c-1.606 2.626-3.353 4.271-5.179 4.876-.536.178-.866.229-1.464.229-.391 0-.614-.014-.81-.052a6.758 6.758 0 0 1-1.219-.383c-.376-.165-.591-.158-.786.026a.554.554 0 0 0-.041.781c.196.211 1.231.583 1.936.697 1.517.244 3.046-.135 4.535-1.122.971-.644 2.035-1.694 2.925-2.885.592-.794 1.424-2.116 1.486-2.363.048-.187.013-.287-.259-.752-.623-1.062-1.625-2.443-1.851-2.55-.143-.068-.401-.065-.517.006m-5.089.769c.233.023.532.113.767.231l.177.089-1.662 1.669c-.914.918-1.67 1.673-1.679 1.678-.029.015-.23-.442-.288-.652-.075-.273-.075-.957 0-1.23a2.478 2.478 0 0 1 1.664-1.71c.226-.069.586-.118.741-.102l.28.027m2.449 1.901a.593.593 0 0 0-.309.341 2.27 2.27 0 0 0-.046.353 2.418 2.418 0 0 1-2.247 2.238c-.31.02-.475.078-.587.206a.541.541 0 0 0-.037.698c.129.178.267.233.567.225a3.562 3.562 0 0 0 3.243-2.38c.178-.515.257-1.152.169-1.362a.556.556 0 0 0-.302-.318.507.507 0 0 0-.451-.001"
        fill-rule="evenodd" fill="currentColor" />
</svg>