<svg width="30" height="30" viewBox="0 0 30 30" fill="none" xmlns="http://www.w3.org/2000/svg">
    <path
        d="M22.3778 22.3778C22.0341 22.7214 21.477 22.7214 21.1333 22.3778L16.7884 18.0329C16.4281 17.6726 15.8581 17.6504 15.4102 17.8934C15.163 18.0276 14.9003 18.1446 14.6222 18.2444C14.0444 18.4519 13.4296 18.5556 12.7778 18.5556C11.163 18.5556 9.79644 17.9964 8.67822 16.8782C7.55941 15.7594 7 14.3926 7 12.7778C7 11.163 7.55941 9.79615 8.67822 8.67733C9.79644 7.55911 11.163 7 12.7778 7C14.3926 7 15.7594 7.55911 16.8782 8.67733C17.9964 9.79615 18.5556 11.163 18.5556 12.7778C18.5556 13.4296 18.4519 14.0444 18.2444 14.6222C18.1446 14.9003 18.0276 15.163 17.8934 15.4102C17.6504 15.8581 17.6726 16.4281 18.0329 16.7884L22.3778 21.1333C22.7214 21.477 22.7214 22.0341 22.3778 22.3778ZM12.7778 16.7778C13.8889 16.7778 14.8335 16.389 15.6116 15.6116C16.389 14.8335 16.7778 13.8889 16.7778 12.7778C16.7778 11.6667 16.389 10.7221 15.6116 9.944C14.8335 9.16652 13.8889 8.77778 12.7778 8.77778C11.6667 8.77778 10.7221 9.16652 9.944 9.944C9.16652 10.7221 8.77778 11.6667 8.77778 12.7778C8.77778 13.8889 9.16652 14.8335 9.944 15.6116C10.7221 16.389 11.6667 16.7778 12.7778 16.7778Z"
        fill="currentColor" />
</svg>