<svg width="20" height="21" viewBox="0 0 20 21" fill="none" xmlns="http://www.w3.org/2000/svg">
<path d="M9.99674 7.16748C9.55472 7.16748 9.13079 6.99189 8.81823 6.67932C8.50567 6.36676 8.33008 5.94284 8.33008 5.50081C8.33008 5.05879 8.50567 4.63486 8.81823 4.3223C9.13079 4.00974 9.55472 3.83415 9.99674 3.83415C10.4388 3.83415 10.8627 4.00974 11.1753 4.3223C11.4878 4.63486 11.6634 5.05879 11.6634 5.50081C11.6634 5.94284 11.4878 6.36676 11.1753 6.67932C10.8627 6.99189 10.4388 7.16748 9.99674 7.16748ZM9.99674 12.1675C9.55472 12.1675 9.13079 11.9919 8.81823 11.6793C8.50567 11.3668 8.33008 10.9428 8.33008 10.5008C8.33008 10.0588 8.50567 9.63486 8.81823 9.3223C9.13079 9.00974 9.55472 8.83415 9.99674 8.83415C10.4388 8.83415 10.8627 9.00974 11.1753 9.3223C11.4878 9.63486 11.6634 10.0588 11.6634 10.5008C11.6634 10.9428 11.4878 11.3668 11.1753 11.6793C10.8627 11.9919 10.4388 12.1675 9.99674 12.1675ZM9.99674 17.1675C9.55472 17.1675 9.13079 16.9919 8.81823 16.6793C8.50567 16.3668 8.33008 15.9428 8.33008 15.5008C8.33008 15.0588 8.50567 14.6349 8.81823 14.3223C9.13079 14.0097 9.55472 13.8341 9.99674 13.8341C10.4388 13.8341 10.8627 14.0097 11.1753 14.3223C11.4878 14.6349 11.6634 15.0588 11.6634 15.5008C11.6634 15.9428 11.4878 16.3668 11.1753 16.6793C10.8627 16.9919 10.4388 17.1675 9.99674 17.1675Z" fill="#4D4D4D"/>
</svg>
