<svg width="16" height="16" fill="none" xmlns="http://www.w3.org/2000/svg"><path d="M6.276.694a4.005 4.005 0 0 0-3.164 2.175 3.963 3.963 0 0 0 .715 4.583 3.891 3.891 0 0 0 2.84 1.191 3.895 3.895 0 0 0 2.84-1.191c1.652-1.673 1.49-4.421-.347-5.896A4.02 4.02 0 0 0 6.276.694m1.097 1.384c.31.084.714.292.974.503.422.342.732.808.897 1.352.068.223.073.275.075.72.001.423-.007.506-.06.691-.248.858-.82 1.5-1.619 1.816-.583.23-1.364.23-1.947 0-.798-.316-1.371-.958-1.619-1.816-.053-.185-.06-.268-.059-.691.001-.445.006-.497.074-.72.299-.982 1.062-1.689 2.044-1.895.27-.056.968-.034 1.24.04m4.35.262a48.544 48.544 0 0 0-.336 1.202c0 .013.079.071.177.128.495.289.889.826 1.039 1.418.084.334.088.793.009 1.125a2.447 2.447 0 0 1-.786 1.262c-.291.236-.725.439-1.035.486l-.124.018V9.31l.126-.017a4.156 4.156 0 0 0 1.36-.462 3.66 3.66 0 0 0 1.117-5.338 4.56 4.56 0 0 0-.72-.73 4.314 4.314 0 0 0-.715-.428c-.091-.038-.099-.037-.112.005M6.187 9.364a5.363 5.363 0 0 0-3.973 2.396c-.446.678-.787 1.644-.839 2.38a47.72 47.72 0 0 1-.03.373l-.014.154h1.328l.015-.287a4.015 4.015 0 0 1 .676-1.975c.212-.321.748-.853 1.077-1.069a3.899 3.899 0 0 1 2.24-.669c.834 0 1.545.212 2.24.669.329.216.865.748 1.076 1.069.404.613.64 1.301.676 1.975l.016.287h1.328l-.014-.154a23.57 23.57 0 0 1-.03-.373c-.038-.524-.247-1.256-.517-1.807-.828-1.691-2.448-2.798-4.349-2.971a4.16 4.16 0 0 0-.906.002m5.741 1.046-.266.594.168.087c.5.259 1.049.725 1.385 1.175.443.593.739 1.397.778 2.114l.015.287h.663c.364 0 .662-.011.662-.023 0-.182-.07-.783-.12-1.031a5.34 5.34 0 0 0-2.809-3.691l-.209-.105-.267.593" fill="currentColor" fill-rule="evenodd"/></svg>